<svg xmlns="http://www.w3.org/2000/svg" width="2560" height="2560"><path d="M1345,1401L1108,1460L1237,1694Z" fill="rgb(68,88,88)" stroke="rgb(68,88,88)" stroke-width="1.51"/><path d="M1237,1694L1368,1711L1345,1401Z" fill="rgb(66,85,85)" stroke="rgb(66,85,85)" stroke-width="1.51"/><path d="M1683,1677L1647,1375L1345,1401Z" fill="rgb(65,84,84)" stroke="rgb(65,84,84)" stroke-width="1.51"/><path d="M1108,1460L834,1775L1237,1694Z" fill="rgb(71,92,92)" stroke="rgb(71,92,92)" stroke-width="1.51"/><path d="M1055,1074L823,1457L1108,1460Z" fill="rgb(74,96,96)" stroke="rgb(74,96,96)" stroke-width="1.51"/><path d="M1345,1401L1055,1074L1108,1460Z" fill="rgb(70,91,91)" stroke="rgb(70,91,91)" stroke-width="1.51"/><path d="M1647,1375L1459,1148L1345,1401Z" fill="rgb(67,87,87)" stroke="rgb(67,87,87)" stroke-width="1.51"/><path d="M1368,1711L1683,1677L1345,1401Z" fill="rgb(66,84,84)" stroke="rgb(66,84,84)" stroke-width="1.51"/><path d="M1368,1711L1484,1926L1683,1677Z" fill="rgb(64,82,82)" stroke="rgb(64,82,82)" stroke-width="1.51"/><path d="M1240,2044L1484,1926L1368,1711Z" fill="rgb(65,83,83)" stroke="rgb(65,83,83)" stroke-width="1.51"/><path d="M1240,2044L1368,1711L1237,1694Z" fill="rgb(66,84,84)" stroke="rgb(66,84,84)" stroke-width="1.51"/><path d="M823,1457L834,1775L1108,1460Z" fill="rgb(75,97,97)" stroke="rgb(75,97,97)" stroke-width="1.51"/><path d="M1459,1148L1055,1074L1345,1401Z" fill="rgb(69,91,91)" stroke="rgb(69,91,91)" stroke-width="1.51"/><path d="M834,1775L1240,2044L1237,1694Z" fill="rgb(69,89,89)" stroke="rgb(69,89,89)" stroke-width="1.51"/><path d="M1459,1148L1228,796L1055,1074Z" fill="rgb(75,98,98)" stroke="rgb(75,98,98)" stroke-width="1.51"/><path d="M1647,1375L1676,1099L1459,1148Z" fill="rgb(68,88,88)" stroke="rgb(68,88,88)" stroke-width="1.51"/><path d="M1973,1168L1676,1099L1647,1375Z" fill="rgb(67,87,87)" stroke="rgb(67,87,87)" stroke-width="1.51"/><path d="M1055,1074L755,1112L823,1457Z" fill="rgb(79,102,102)" stroke="rgb(79,102,102)" stroke-width="1.51"/><path d="M520,2103L759,2143L834,1775Z" fill="rgb(78,99,99)" stroke="rgb(78,99,99)" stroke-width="1.51"/><path d="M1484,1926L1673,2100L1683,1677Z" fill="rgb(63,80,80)" stroke="rgb(63,80,80)" stroke-width="1.51"/><path d="M1240,2044L1673,2100L1484,1926Z" fill="rgb(63,81,81)" stroke="rgb(63,81,81)" stroke-width="1.51"/><path d="M1055,1074L788,784L755,1112Z" fill="rgb(85,109,109)" stroke="rgb(85,109,109)" stroke-width="1.51"/><path d="M1370,741L1228,796L1459,1148Z" fill="rgb(76,99,99)" stroke="rgb(76,99,99)" stroke-width="1.51"/><path d="M1240,2044L1455,2411L1673,2100Z" fill="rgb(63,79,79)" stroke="rgb(63,79,79)" stroke-width="1.51"/><path d="M759,2143L1162,2296L1240,2044Z" fill="rgb(69,88,88)" stroke="rgb(69,88,88)" stroke-width="1.51"/><path d="M834,1775L759,2143L1240,2044Z" fill="rgb(72,92,92)" stroke="rgb(72,92,92)" stroke-width="1.51"/><path d="M480,1772L834,1775L823,1457Z" fill="rgb(79,102,102)" stroke="rgb(79,102,102)" stroke-width="1.51"/><path d="M755,1112L465,1424L823,1457Z" fill="rgb(82,106,106)" stroke="rgb(82,106,106)" stroke-width="1.51"/><path d="M1676,1099L1370,741L1459,1148Z" fill="rgb(73,95,95)" stroke="rgb(73,95,95)" stroke-width="1.51"/><path d="M1766,601L1343,594L1370,741Z" fill="rgb(82,105,105)" stroke="rgb(82,105,105)" stroke-width="1.51"/><path d="M2069,1384L1973,1168L1647,1375Z" fill="rgb(65,83,83)" stroke="rgb(65,83,83)" stroke-width="1.51"/><path d="M2069,1384L1647,1375L1683,1677Z" fill="rgb(65,83,83)" stroke="rgb(65,83,83)" stroke-width="1.51"/><path d="M465,1424L480,1772L823,1457Z" fill="rgb(83,106,106)" stroke="rgb(83,106,106)" stroke-width="1.51"/><path d="M755,1112L604,1033L465,1424Z" fill="rgb(86,111,111)" stroke="rgb(86,111,111)" stroke-width="1.51"/><path d="M788,784L604,1033L755,1112Z" fill="rgb(88,114,114)" stroke="rgb(88,114,114)" stroke-width="1.51"/><path d="M788,784L1055,1074L1228,796Z" fill="rgb(83,108,108)" stroke="rgb(83,108,108)" stroke-width="1.51"/><path d="M2075,1766L2069,1384L1683,1677Z" fill="rgb(63,80,80)" stroke="rgb(63,80,80)" stroke-width="1.51"/><path d="M2005,1974L2075,1766L1683,1677Z" fill="rgb(62,79,79)" stroke="rgb(62,79,79)" stroke-width="1.51"/><path d="M1673,2100L2005,1974L1683,1677Z" fill="rgb(63,79,79)" stroke="rgb(63,79,79)" stroke-width="1.51"/><path d="M1748,2276L2005,1974L1673,2100Z" fill="rgb(61,77,77)" stroke="rgb(61,77,77)" stroke-width="1.51"/><path d="M907,562L788,784L1228,796Z" fill="rgb(88,114,114)" stroke="rgb(88,114,114)" stroke-width="1.51"/><path d="M1455,2411L1748,2276L1673,2100Z" fill="rgb(61,77,77)" stroke="rgb(61,77,77)" stroke-width="1.51"/><path d="M1162,2296L1455,2411L1240,2044Z" fill="rgb(63,80,80)" stroke="rgb(63,80,80)" stroke-width="1.51"/><path d="M1522,2569L1455,2411L1087,2701Z" fill="rgb(61,77,77)" stroke="rgb(61,77,77)" stroke-width="1.51"/><path d="M759,2143L742,2407L1162,2296Z" fill="rgb(72,92,92)" stroke="rgb(72,92,92)" stroke-width="1.51"/><path d="M480,1772L520,2103L834,1775Z" fill="rgb(81,103,102)" stroke="rgb(81,103,102)" stroke-width="1.51"/><path d="M465,1424L324,1518L480,1772Z" fill="rgb(87,111,111)" stroke="rgb(87,111,111)" stroke-width="1.51"/><path d="M284,2139L449,2267L520,2103Z" fill="rgb(84,106,106)" stroke="rgb(84,106,106)" stroke-width="1.51"/><path d="M226,1024L324,1518L465,1424Z" fill="rgb(90,116,116)" stroke="rgb(90,116,116)" stroke-width="1.51"/><path d="M1370,741L1343,594L1228,796Z" fill="rgb(81,105,105)" stroke="rgb(81,105,105)" stroke-width="1.51"/><path d="M1795,759L1370,741L1676,1099Z" fill="rgb(76,98,98)" stroke="rgb(76,98,98)" stroke-width="1.51"/><path d="M1973,1168L1795,759L1676,1099Z" fill="rgb(72,92,92)" stroke="rgb(72,92,92)" stroke-width="1.51"/><path d="M1766,601L1795,759L1940,588Z" fill="rgb(80,102,102)" stroke="rgb(80,102,102)" stroke-width="1.51"/><path d="M604,1033L226,1024L465,1424Z" fill="rgb(91,117,117)" stroke="rgb(91,117,117)" stroke-width="1.51"/><path d="M788,784L535,859L604,1033Z" fill="rgb(92,118,118)" stroke="rgb(92,118,118)" stroke-width="1.51"/><path d="M548,511L535,859L788,784Z" fill="rgb(97,124,124)" stroke="rgb(97,124,124)" stroke-width="1.51"/><path d="M1343,594L1132,542L1228,796Z" fill="rgb(84,109,109)" stroke="rgb(84,109,109)" stroke-width="1.51"/><path d="M449,2267L742,2407L759,2143Z" fill="rgb(78,98,98)" stroke="rgb(78,98,98)" stroke-width="1.51"/><path d="M1132,542L907,562L1228,796Z" fill="rgb(88,113,113)" stroke="rgb(88,113,113)" stroke-width="1.51"/><path d="M2075,1766L2293,1728L2069,1384Z" fill="rgb(62,78,78)" stroke="rgb(62,78,78)" stroke-width="1.51"/><path d="M2069,1384L2275,1060L1973,1168Z" fill="rgb(66,84,84)" stroke="rgb(66,84,84)" stroke-width="1.51"/><path d="M2295,1987L2293,1728L2075,1766Z" fill="rgb(60,76,76)" stroke="rgb(60,76,76)" stroke-width="1.51"/><path d="M2295,1987L2075,1766L2005,1974Z" fill="rgb(60,76,76)" stroke="rgb(60,76,76)" stroke-width="1.51"/><path d="M1795,759L1766,601L1370,741Z" fill="rgb(80,103,103)" stroke="rgb(80,103,103)" stroke-width="1.51"/><path d="M1185,136L919,280L1132,542Z" fill="rgb(96,123,123)" stroke="rgb(96,123,123)" stroke-width="1.51"/><path d="M2130,807L1795,759L1973,1168Z" fill="rgb(73,93,93)" stroke="rgb(73,93,93)" stroke-width="1.51"/><path d="M1455,2411L1692,2571L1748,2276Z" fill="rgb(60,76,76)" stroke="rgb(60,76,76)" stroke-width="1.51"/><path d="M1748,2276L1928,2426L2005,1974Z" fill="rgb(60,75,75)" stroke="rgb(60,75,75)" stroke-width="1.51"/><path d="M1087,2701L1455,2411L1162,2296Z" fill="rgb(63,80,80)" stroke="rgb(63,80,80)" stroke-width="1.51"/><path d="M284,2139L520,2103L480,1772Z" fill="rgb(84,107,107)" stroke="rgb(84,107,107)" stroke-width="1.51"/><path d="M520,2103L449,2267L759,2143Z" fill="rgb(80,101,101)" stroke="rgb(80,101,101)" stroke-width="1.51"/><path d="M475,2578L828,2543L742,2407Z" fill="rgb(76,95,95)" stroke="rgb(76,95,95)" stroke-width="1.51"/><path d="M742,2407L828,2543L1162,2296Z" fill="rgb(70,89,89)" stroke="rgb(70,89,89)" stroke-width="1.51"/><path d="M1692,2571L1928,2426L1748,2276Z" fill="rgb(59,74,74)" stroke="rgb(59,74,74)" stroke-width="1.51"/><path d="M2440,1432L2275,1060L2069,1384Z" fill="rgb(63,80,80)" stroke="rgb(63,80,80)" stroke-width="1.51"/><path d="M1522,2569L1692,2571L1455,2411Z" fill="rgb(60,76,76)" stroke="rgb(60,76,76)" stroke-width="1.51"/><path d="M2318,2372L2295,1987L2005,1974Z" fill="rgb(60,74,74)" stroke="rgb(60,74,74)" stroke-width="1.51"/><path d="M2275,1060L2130,807L1973,1168Z" fill="rgb(70,89,89)" stroke="rgb(70,89,89)" stroke-width="1.51"/><path d="M324,1518L116,1627L480,1772Z" fill="rgb(89,114,114)" stroke="rgb(89,114,114)" stroke-width="1.51"/><path d="M-121,1405L116,1627L324,1518Z" fill="rgb(95,121,121)" stroke="rgb(95,121,121)" stroke-width="1.51"/><path d="M116,1627L284,2139L480,1772Z" fill="rgb(88,113,113)" stroke="rgb(88,113,113)" stroke-width="1.51"/><path d="M535,859L226,1024L604,1033Z" fill="rgb(95,122,122)" stroke="rgb(95,122,122)" stroke-width="1.51"/><path d="M131,742L226,1024L535,859Z" fill="rgb(101,129,129)" stroke="rgb(101,129,129)" stroke-width="1.51"/><path d="M2130,807L1940,588L1795,759Z" fill="rgb(78,99,99)" stroke="rgb(78,99,99)" stroke-width="1.51"/><path d="M1185,136L1132,542L1343,594Z" fill="rgb(90,116,116)" stroke="rgb(90,116,116)" stroke-width="1.51"/><path d="M828,2543L1087,2701L1162,2296Z" fill="rgb(67,86,86)" stroke="rgb(67,86,86)" stroke-width="1.51"/><path d="M1522,2569L1762,2879L1692,2571Z" fill="rgb(59,74,74)" stroke="rgb(59,74,74)" stroke-width="1.51"/><path d="M2706,1662L2440,1432L2293,1728Z" fill="rgb(60,75,75)" stroke="rgb(60,75,75)" stroke-width="1.51"/><path d="M2293,1728L2440,1432L2069,1384Z" fill="rgb(62,78,78)" stroke="rgb(62,78,78)" stroke-width="1.51"/><path d="M907,562L548,511L788,784Z" fill="rgb(96,124,124)" stroke="rgb(96,124,124)" stroke-width="1.51"/><path d="M919,280L548,511L907,562Z" fill="rgb(99,127,127)" stroke="rgb(99,127,127)" stroke-width="1.51"/><path d="M1132,542L919,280L907,562Z" fill="rgb(94,121,121)" stroke="rgb(94,121,121)" stroke-width="1.51"/><path d="M1822,333L1343,594L1766,601Z" fill="rgb(84,108,108)" stroke="rgb(84,108,108)" stroke-width="1.51"/><path d="M214,2434L475,2578L449,2267Z" fill="rgb(83,104,104)" stroke="rgb(83,104,104)" stroke-width="1.51"/><path d="M449,2267L475,2578L742,2407Z" fill="rgb(79,100,100)" stroke="rgb(79,100,100)" stroke-width="1.51"/><path d="M828,2543L850,2868L1087,2701Z" fill="rgb(70,88,88)" stroke="rgb(70,88,88)" stroke-width="1.51"/><path d="M1940,588L1822,333L1766,601Z" fill="rgb(83,106,106)" stroke="rgb(83,106,106)" stroke-width="1.51"/><path d="M2107,138L1822,333L1940,588Z" fill="rgb(86,110,110)" stroke="rgb(86,110,110)" stroke-width="1.51"/><path d="M116,1627L-136,1980L284,2139Z" fill="rgb(93,118,118)" stroke="rgb(93,118,118)" stroke-width="1.51"/><path d="M284,2139L214,2434L449,2267Z" fill="rgb(86,108,108)" stroke="rgb(86,108,108)" stroke-width="1.51"/><path d="M-121,1405L-72,1651L116,1627Z" fill="rgb(97,124,124)" stroke="rgb(97,124,124)" stroke-width="1.51"/><path d="M1928,2426L2318,2372L2005,1974Z" fill="rgb(59,73,73)" stroke="rgb(59,73,73)" stroke-width="1.51"/><path d="M1692,2571L2039,2617L1928,2426Z" fill="rgb(58,72,72)" stroke="rgb(58,72,72)" stroke-width="1.51"/><path d="M1762,2879L2039,2617L1692,2571Z" fill="rgb(58,73,73)" stroke="rgb(58,73,73)" stroke-width="1.51"/><path d="M2440,1432L2564,1208L2275,1060Z" fill="rgb(63,80,80)" stroke="rgb(63,80,80)" stroke-width="1.51"/><path d="M2275,1060L2418,743L2130,807Z" fill="rgb(72,92,92)" stroke="rgb(72,92,92)" stroke-width="1.51"/><path d="M2130,807L2297,561L1940,588Z" fill="rgb(78,99,99)" stroke="rgb(78,99,99)" stroke-width="1.51"/><path d="M2718,1373L2564,1208L2440,1432Z" fill="rgb(61,77,77)" stroke="rgb(61,77,77)" stroke-width="1.51"/><path d="M2039,2617L2318,2372L1928,2426Z" fill="rgb(58,71,71)" stroke="rgb(58,71,71)" stroke-width="1.51"/><path d="M2295,1987L2555,2089L2293,1728Z" fill="rgb(59,74,74)" stroke="rgb(59,74,74)" stroke-width="1.51"/><path d="M548,511L131,742L535,859Z" fill="rgb(102,132,132)" stroke="rgb(102,132,132)" stroke-width="1.51"/><path d="M226,1024L-121,1405L324,1518Z" fill="rgb(95,122,122)" stroke="rgb(95,122,122)" stroke-width="1.51"/><path d="M229,453L131,742L548,511Z" fill="rgb(108,139,139)" stroke="rgb(108,139,139)" stroke-width="1.51"/><path d="M-21,2440L214,2434L284,2139Z" fill="rgb(89,112,112)" stroke="rgb(89,112,112)" stroke-width="1.51"/><path d="M-85,1027L-121,1405L226,1024Z" fill="rgb(102,130,130)" stroke="rgb(102,130,130)" stroke-width="1.51"/><path d="M1087,2701L1422,2953L1522,2569Z" fill="rgb(61,77,77)" stroke="rgb(61,77,77)" stroke-width="1.51"/><path d="M545,2899L850,2868L828,2543Z" fill="rgb(74,93,93)" stroke="rgb(74,93,93)" stroke-width="1.51"/><path d="M545,2899L828,2543L475,2578Z" fill="rgb(77,97,97)" stroke="rgb(77,97,97)" stroke-width="1.51"/><path d="M1462,126L1185,136L1343,594Z" fill="rgb(91,117,117)" stroke="rgb(91,117,117)" stroke-width="1.51"/><path d="M2694,871L2418,743L2275,1060Z" fill="rgb(71,90,90)" stroke="rgb(71,90,90)" stroke-width="1.51"/><path d="M2318,2372L2555,2089L2295,1987Z" fill="rgb(58,72,72)" stroke="rgb(58,72,72)" stroke-width="1.51"/><path d="M1822,333L1462,126L1343,594Z" fill="rgb(88,113,113)" stroke="rgb(88,113,113)" stroke-width="1.51"/><path d="M2418,743L2297,561L2130,807Z" fill="rgb(76,97,97)" stroke="rgb(76,97,97)" stroke-width="1.51"/><path d="M1682,-74L1364,-83L1462,126Z" fill="rgb(98,124,124)" stroke="rgb(98,124,124)" stroke-width="1.51"/><path d="M-86,903L-85,1027L226,1024Z" fill="rgb(106,135,135)" stroke="rgb(106,135,135)" stroke-width="1.51"/><path d="M1201,3018L1422,2953L1087,2701Z" fill="rgb(62,79,79)" stroke="rgb(62,79,79)" stroke-width="1.51"/><path d="M1422,2953L1762,2879L1522,2569Z" fill="rgb(60,75,75)" stroke="rgb(60,75,75)" stroke-width="1.51"/><path d="M2039,2617L2266,2675L2318,2372Z" fill="rgb(57,70,70)" stroke="rgb(57,70,70)" stroke-width="1.51"/><path d="M-72,1651L-136,1980L116,1627Z" fill="rgb(96,122,122)" stroke="rgb(96,122,122)" stroke-width="1.51"/><path d="M-374,1810L-136,1980L-72,1651Z" fill="rgb(96,122,122)" stroke="rgb(96,122,122)" stroke-width="1.51"/><path d="M2555,2089L2706,1662L2293,1728Z" fill="rgb(58,73,73)" stroke="rgb(58,73,73)" stroke-width="1.51"/><path d="M2694,871L2540,616L2418,743Z" fill="rgb(74,93,93)" stroke="rgb(74,93,93)" stroke-width="1.51"/><path d="M2706,1662L2718,1373L2440,1432Z" fill="rgb(60,76,76)" stroke="rgb(60,76,76)" stroke-width="1.51"/><path d="M131,742L-86,903L226,1024Z" fill="rgb(106,136,136)" stroke="rgb(106,136,136)" stroke-width="1.51"/><path d="M-411,1524L-72,1651L-121,1405Z" fill="rgb(97,124,124)" stroke="rgb(97,124,124)" stroke-width="1.51"/><path d="M850,2868L1201,3018L1087,2701Z" fill="rgb(67,84,84)" stroke="rgb(67,84,84)" stroke-width="1.51"/><path d="M1422,2953L1958,2926L1762,2879Z" fill="rgb(59,74,74)" stroke="rgb(59,74,74)" stroke-width="1.51"/><path d="M131,742L-177,550L-86,903Z" fill="rgb(112,143,143)" stroke="rgb(112,143,143)" stroke-width="1.51"/><path d="M460,173L229,453L548,511Z" fill="rgb(111,141,141)" stroke="rgb(111,141,141)" stroke-width="1.51"/><path d="M460,173L548,511L919,280Z" fill="rgb(106,136,136)" stroke="rgb(106,136,136)" stroke-width="1.51"/><path d="M2318,2372L2705,2265L2555,2089Z" fill="rgb(56,70,70)" stroke="rgb(56,70,70)" stroke-width="1.51"/><path d="M1958,2926L2266,2675L2039,2617Z" fill="rgb(57,71,71)" stroke="rgb(57,71,71)" stroke-width="1.51"/><path d="M214,2434L286,2723L475,2578Z" fill="rgb(84,105,105)" stroke="rgb(84,105,105)" stroke-width="1.51"/><path d="M850,2868L322,3035L1201,3018Z" fill="rgb(73,91,91)" stroke="rgb(73,91,91)" stroke-width="1.51"/><path d="M-92,2548L286,2723L214,2434Z" fill="rgb(88,110,110)" stroke="rgb(88,110,110)" stroke-width="1.51"/><path d="M286,2723L545,2899L475,2578Z" fill="rgb(81,102,102)" stroke="rgb(81,102,102)" stroke-width="1.51"/><path d="M1185,136L1050,-2L919,280Z" fill="rgb(101,129,129)" stroke="rgb(101,129,129)" stroke-width="1.51"/><path d="M1364,-83L1050,-2L1185,136Z" fill="rgb(100,129,129)" stroke="rgb(100,129,129)" stroke-width="1.51"/><path d="M1201,3018L1958,2926L1422,2953Z" fill="rgb(60,76,76)" stroke="rgb(60,76,76)" stroke-width="1.51"/><path d="M1762,2879L1958,2926L2039,2617Z" fill="rgb(58,72,72)" stroke="rgb(58,72,72)" stroke-width="1.51"/><path d="M-136,1980L-21,2440L284,2139Z" fill="rgb(93,116,116)" stroke="rgb(93,116,116)" stroke-width="1.51"/><path d="M738,-112L460,173L919,280Z" fill="rgb(110,140,140)" stroke="rgb(110,140,140)" stroke-width="1.51"/><path d="M2418,743L2540,616L2297,561Z" fill="rgb(77,97,97)" stroke="rgb(77,97,97)" stroke-width="1.51"/><path d="M2297,561L2107,138L1940,588Z" fill="rgb(84,106,106)" stroke="rgb(84,106,106)" stroke-width="1.51"/><path d="M2694,871L2275,1060L2564,1208Z" fill="rgb(67,85,85)" stroke="rgb(67,85,85)" stroke-width="1.51"/><path d="M2890,1094L2694,871L2564,1208Z" fill="rgb(66,84,84)" stroke="rgb(66,84,84)" stroke-width="1.51"/><path d="M1462,126L1364,-83L1185,136Z" fill="rgb(97,124,124)" stroke="rgb(97,124,124)" stroke-width="1.51"/><path d="M1682,-74L1462,126L1822,333Z" fill="rgb(93,119,119)" stroke="rgb(93,119,119)" stroke-width="1.51"/><path d="M2525,2733L2705,2265L2318,2372Z" fill="rgb(55,68,68)" stroke="rgb(55,68,68)" stroke-width="1.51"/><path d="M2555,2089L2854,1961L2706,1662Z" fill="rgb(58,72,72)" stroke="rgb(58,72,72)" stroke-width="1.51"/><path d="M3008,1330L2890,1094L2718,1373Z" fill="rgb(62,78,78)" stroke="rgb(62,78,78)" stroke-width="1.51"/><path d="M2434,126L2107,138L2297,561Z" fill="rgb(87,109,109)" stroke="rgb(87,109,109)" stroke-width="1.51"/><path d="M-270,2271L-92,2548L-21,2440Z" fill="rgb(92,116,116)" stroke="rgb(92,116,116)" stroke-width="1.51"/><path d="M-411,1524L-374,1810L-72,1651Z" fill="rgb(96,123,123)" stroke="rgb(96,123,123)" stroke-width="1.51"/><path d="M-411,1524L-121,1405L-469,1169Z" fill="rgb(98,125,125)" stroke="rgb(98,125,125)" stroke-width="1.51"/><path d="M2705,2265L2854,1961L2555,2089Z" fill="rgb(57,71,71)" stroke="rgb(57,71,71)" stroke-width="1.51"/><path d="M2718,1373L2890,1094L2564,1208Z" fill="rgb(63,79,79)" stroke="rgb(63,79,79)" stroke-width="1.51"/><path d="M-469,1169L-121,1405L-85,1027Z" fill="rgb(101,129,129)" stroke="rgb(101,129,129)" stroke-width="1.51"/><path d="M2107,138L1682,-74L1822,333Z" fill="rgb(92,117,117)" stroke="rgb(92,117,117)" stroke-width="1.51"/><path d="M-21,2440L-92,2548L214,2434Z" fill="rgb(91,114,114)" stroke="rgb(91,114,114)" stroke-width="1.51"/><path d="M286,2723L322,3035L545,2899Z" fill="rgb(82,103,103)" stroke="rgb(82,103,103)" stroke-width="1.51"/><path d="M-270,2271L-21,2440L-136,1980Z" fill="rgb(93,118,118)" stroke="rgb(93,118,118)" stroke-width="1.51"/><path d="M460,173L127,271L229,453Z" fill="rgb(117,148,148)" stroke="rgb(117,148,148)" stroke-width="1.51"/><path d="M229,453L-177,550L131,742Z" fill="rgb(114,146,146)" stroke="rgb(114,146,146)" stroke-width="1.51"/><path d="M-86,903L-362,898L-85,1027Z" fill="rgb(107,136,136)" stroke="rgb(107,136,136)" stroke-width="1.51"/><path d="M150,-130L127,271L460,173Z" fill="rgb(122,155,155)" stroke="rgb(122,155,155)" stroke-width="1.51"/><path d="M-347,2116L-270,2271L-136,1980Z" fill="rgb(94,118,118)" stroke="rgb(94,118,118)" stroke-width="1.51"/><path d="M2949,1631L2718,1373L2706,1662Z" fill="rgb(60,75,75)" stroke="rgb(60,75,75)" stroke-width="1.51"/><path d="M2694,871L2857,727L2540,616Z" fill="rgb(74,93,93)" stroke="rgb(74,93,93)" stroke-width="1.51"/><path d="M2854,1961L2949,1631L2706,1662Z" fill="rgb(59,74,74)" stroke="rgb(59,74,74)" stroke-width="1.51"/><path d="M-374,1810L-347,2116L-136,1980Z" fill="rgb(95,120,120)" stroke="rgb(95,120,120)" stroke-width="1.51"/><path d="M-465,2691L-347,2116L-374,1810Z" fill="rgb(94,118,118)" stroke="rgb(94,118,118)" stroke-width="1.51"/><path d="M1050,-2L738,-112L919,280Z" fill="rgb(107,137,137)" stroke="rgb(107,137,137)" stroke-width="1.51"/><path d="M1068,-411L738,-112L1050,-2Z" fill="rgb(107,136,136)" stroke="rgb(107,136,136)" stroke-width="1.51"/><path d="M573,-162L738,-112L870,-437Z" fill="rgb(112,143,143)" stroke="rgb(112,143,143)" stroke-width="1.51"/><path d="M-177,550L-362,898L-86,903Z" fill="rgb(111,142,142)" stroke="rgb(111,142,142)" stroke-width="1.51"/><path d="M127,271L-177,550L229,453Z" fill="rgb(118,151,151)" stroke="rgb(118,151,151)" stroke-width="1.51"/><path d="M1958,2926L2377,2868L2266,2675Z" fill="rgb(57,70,70)" stroke="rgb(57,70,70)" stroke-width="1.51"/><path d="M2266,2675L2525,2733L2318,2372Z" fill="rgb(56,68,68)" stroke="rgb(56,68,68)" stroke-width="1.51"/><path d="M2377,2868L2525,2733L2266,2675Z" fill="rgb(56,68,68)" stroke="rgb(56,68,68)" stroke-width="1.51"/><path d="M2705,2265L2942,2322L2854,1961Z" fill="rgb(57,70,70)" stroke="rgb(57,70,70)" stroke-width="1.51"/><path d="M-362,898L-469,1169L-85,1027Z" fill="rgb(105,134,134)" stroke="rgb(105,134,134)" stroke-width="1.51"/><path d="M-411,1524L-465,2691L-374,1810Z" fill="rgb(95,119,119)" stroke="rgb(95,119,119)" stroke-width="1.51"/><path d="M-82,3030L322,3035L286,2723Z" fill="rgb(87,109,109)" stroke="rgb(87,109,109)" stroke-width="1.51"/><path d="M545,2899L322,3035L850,2868Z" fill="rgb(78,98,98)" stroke="rgb(78,98,98)" stroke-width="1.51"/><path d="M2949,1631L3008,1330L2718,1373Z" fill="rgb(60,76,76)" stroke="rgb(60,76,76)" stroke-width="1.51"/><path d="M2883,623L2857,727L2890,1094Z" fill="rgb(72,91,91)" stroke="rgb(72,91,91)" stroke-width="1.51"/><path d="M2890,1094L2857,727L2694,871Z" fill="rgb(70,89,89)" stroke="rgb(70,89,89)" stroke-width="1.51"/><path d="M2243,-30L2069,-83L2107,138Z" fill="rgb(94,118,118)" stroke="rgb(94,118,118)" stroke-width="1.51"/><path d="M2434,126L2297,561L2611,264Z" fill="rgb(85,106,106)" stroke="rgb(85,106,106)" stroke-width="1.51"/><path d="M2107,138L2069,-83L1682,-74Z" fill="rgb(95,120,120)" stroke="rgb(95,120,120)" stroke-width="1.51"/><path d="M1340,-427L1068,-411L1364,-83Z" fill="rgb(99,127,127)" stroke="rgb(99,127,127)" stroke-width="1.51"/><path d="M738,-112L573,-162L460,173Z" fill="rgb(116,147,147)" stroke="rgb(116,147,147)" stroke-width="1.51"/><path d="M127,271L-55,225L-177,550Z" fill="rgb(122,155,155)" stroke="rgb(122,155,155)" stroke-width="1.51"/><path d="M1068,-411L1050,-2L1364,-83Z" fill="rgb(102,130,130)" stroke="rgb(102,130,130)" stroke-width="1.51"/><path d="M2611,264L2297,561L2540,616Z" fill="rgb(81,101,101)" stroke="rgb(81,101,101)" stroke-width="1.51"/><path d="M150,-130L-55,225L127,271Z" fill="rgb(126,159,159)" stroke="rgb(126,159,159)" stroke-width="1.51"/><path d="M-177,550L-433,584L-362,898Z" fill="rgb(114,145,145)" stroke="rgb(114,145,145)" stroke-width="1.51"/><path d="M2434,126L2243,-30L2107,138Z" fill="rgb(91,115,115)" stroke="rgb(91,115,115)" stroke-width="1.51"/><path d="M2434,126L2642,32L2243,-30Z" fill="rgb(91,114,114)" stroke="rgb(91,114,114)" stroke-width="1.51"/><path d="M2883,623L2611,264L2540,616Z" fill="rgb(80,100,100)" stroke="rgb(80,100,100)" stroke-width="1.51"/><path d="M2949,1631L2942,2322L3008,1330Z" fill="rgb(59,74,74)" stroke="rgb(59,74,74)" stroke-width="1.51"/><path d="M2854,1961L2942,2322L2949,1631Z" fill="rgb(58,72,72)" stroke="rgb(58,72,72)" stroke-width="1.51"/><path d="M2876,2678L2942,2322L2705,2265Z" fill="rgb(56,68,68)" stroke="rgb(56,68,68)" stroke-width="1.51"/><path d="M2857,727L2883,623L2540,616Z" fill="rgb(76,96,96)" stroke="rgb(76,96,96)" stroke-width="1.51"/><path d="M3008,1330L2883,623L2890,1094Z" fill="rgb(67,85,85)" stroke="rgb(67,85,85)" stroke-width="1.51"/><path d="M-376,331L-433,584L-177,550Z" fill="rgb(118,151,151)" stroke="rgb(118,151,151)" stroke-width="1.51"/><path d="M-362,898L-433,584L-469,1169Z" fill="rgb(109,139,139)" stroke="rgb(109,139,139)" stroke-width="1.51"/><path d="M1340,-427L1682,-74L1830,-347Z" fill="rgb(97,123,123)" stroke="rgb(97,123,123)" stroke-width="1.51"/><path d="M1340,-427L1364,-83L1682,-74Z" fill="rgb(98,125,125)" stroke="rgb(98,125,125)" stroke-width="1.51"/><path d="M1830,-347L1682,-74L2069,-83Z" fill="rgb(95,121,121)" stroke="rgb(95,121,121)" stroke-width="1.51"/><path d="M2099,-455L1830,-347L2069,-83Z" fill="rgb(95,120,120)" stroke="rgb(95,120,120)" stroke-width="1.51"/><path d="M2525,2733L2876,2678L2705,2265Z" fill="rgb(55,67,67)" stroke="rgb(55,67,67)" stroke-width="1.51"/><path d="M2714,3030L2876,2678L2525,2733Z" fill="rgb(55,67,67)" stroke="rgb(55,67,67)" stroke-width="1.51"/><path d="M870,-437L435,-283L573,-162Z" fill="rgb(115,146,146)" stroke="rgb(115,146,146)" stroke-width="1.51"/><path d="M573,-162L150,-130L460,173Z" fill="rgb(121,153,153)" stroke="rgb(121,153,153)" stroke-width="1.51"/><path d="M-55,225L-376,331L-177,550Z" fill="rgb(121,154,154)" stroke="rgb(121,154,154)" stroke-width="1.51"/><path d="M435,-283L150,-130L573,-162Z" fill="rgb(121,154,154)" stroke="rgb(121,154,154)" stroke-width="1.51"/><path d="M-92,2548L-82,3030L286,2723Z" fill="rgb(91,114,114)" stroke="rgb(91,114,114)" stroke-width="1.51"/><path d="M-329,2984L-82,3030L-92,2548Z" fill="rgb(92,115,115)" stroke="rgb(92,115,115)" stroke-width="1.51"/><path d="M-465,2691L-92,2548L-270,2271Z" fill="rgb(92,115,115)" stroke="rgb(92,115,115)" stroke-width="1.51"/><path d="M1340,-427L870,-437L1068,-411Z" fill="rgb(103,132,132)" stroke="rgb(103,132,132)" stroke-width="1.51"/><path d="M1068,-411L870,-437L738,-112Z" fill="rgb(108,138,138)" stroke="rgb(108,138,138)" stroke-width="1.51"/><path d="M-329,-115L-376,331L-55,225Z" fill="rgb(127,161,161)" stroke="rgb(127,161,161)" stroke-width="1.51"/><path d="M2357,-437L2099,-455L2069,-83Z" fill="rgb(94,118,118)" stroke="rgb(94,118,118)" stroke-width="1.51"/><path d="M2611,264L2642,32L2434,126Z" fill="rgb(88,110,110)" stroke="rgb(88,110,110)" stroke-width="1.51"/><path d="M2978,131L2642,32L2611,264Z" fill="rgb(88,110,110)" stroke="rgb(88,110,110)" stroke-width="1.51"/><path d="M-469,1169L-465,2691L-411,1524Z" fill="rgb(96,122,122)" stroke="rgb(96,122,122)" stroke-width="1.51"/><path d="M-347,2116L-465,2691L-270,2271Z" fill="rgb(93,116,116)" stroke="rgb(93,116,116)" stroke-width="1.51"/><path d="M2377,2868L2714,3030L2525,2733Z" fill="rgb(55,67,67)" stroke="rgb(55,67,67)" stroke-width="1.51"/><path d="M1958,2926L2714,3030L2377,2868Z" fill="rgb(56,69,69)" stroke="rgb(56,69,69)" stroke-width="1.51"/><path d="M1201,3018L2714,3030L1958,2926Z" fill="rgb(58,72,72)" stroke="rgb(58,72,72)" stroke-width="1.51"/><path d="M322,3035L2714,3030L1201,3018Z" fill="rgb(61,77,77)" stroke="rgb(61,77,77)" stroke-width="1.51"/><path d="M870,-437L315,-345L435,-283Z" fill="rgb(117,149,149)" stroke="rgb(117,149,149)" stroke-width="1.51"/><path d="M435,-283L315,-345L150,-130Z" fill="rgb(123,156,156)" stroke="rgb(123,156,156)" stroke-width="1.51"/><path d="M150,-130L-1,-177L-55,225Z" fill="rgb(130,165,165)" stroke="rgb(130,165,165)" stroke-width="1.51"/><path d="M315,-345L-1,-177L150,-130Z" fill="rgb(127,161,161)" stroke="rgb(127,161,161)" stroke-width="1.51"/><path d="M-465,2691L-329,2984L-92,2548Z" fill="rgb(92,115,115)" stroke="rgb(92,115,115)" stroke-width="1.51"/><path d="M1340,-427L2099,-455L870,-437Z" fill="rgb(98,125,125)" stroke="rgb(98,125,125)" stroke-width="1.51"/><path d="M1830,-347L2099,-455L1340,-427Z" fill="rgb(96,122,122)" stroke="rgb(96,122,122)" stroke-width="1.51"/><path d="M2357,-437L2069,-83L2243,-30Z" fill="rgb(93,118,118)" stroke="rgb(93,118,118)" stroke-width="1.51"/><path d="M2642,32L2357,-437L2243,-30Z" fill="rgb(92,116,116)" stroke="rgb(92,116,116)" stroke-width="1.51"/><path d="M2883,623L2978,131L2611,264Z" fill="rgb(84,105,105)" stroke="rgb(84,105,105)" stroke-width="1.51"/><path d="M3008,1330L2978,131L2883,623Z" fill="rgb(75,94,94)" stroke="rgb(75,94,94)" stroke-width="1.51"/><path d="M2714,3030L3031,2890L2876,2678Z" fill="rgb(55,67,67)" stroke="rgb(55,67,67)" stroke-width="1.51"/><path d="M2876,2678L3031,2890L2942,2322Z" fill="rgb(55,67,67)" stroke="rgb(55,67,67)" stroke-width="1.51"/><path d="M2942,2322L3031,2890L3008,1330Z" fill="rgb(57,70,70)" stroke="rgb(57,70,70)" stroke-width="1.51"/><path d="M2541,-464L2357,-437L2642,32Z" fill="rgb(92,115,115)" stroke="rgb(92,115,115)" stroke-width="1.51"/><path d="M-1,-177L-329,-115L-55,225Z" fill="rgb(131,166,166)" stroke="rgb(131,166,166)" stroke-width="1.51"/><path d="M-376,331L-329,-115L-433,584Z" fill="rgb(124,157,157)" stroke="rgb(124,157,157)" stroke-width="1.51"/><path d="M-87,-326L-329,-115L-1,-177Z" fill="rgb(131,166,166)" stroke="rgb(131,166,166)" stroke-width="1.51"/><path d="M870,-437L-87,-326L315,-345Z" fill="rgb(121,154,154)" stroke="rgb(121,154,154)" stroke-width="1.51"/><path d="M315,-345L-87,-326L-1,-177Z" fill="rgb(129,163,163)" stroke="rgb(129,163,163)" stroke-width="1.51"/><path d="M2989,-130L2541,-464L2642,32Z" fill="rgb(92,115,115)" stroke="rgb(92,115,115)" stroke-width="1.51"/><path d="M2357,-437L2541,-464L2099,-455Z" fill="rgb(93,117,117)" stroke="rgb(93,117,117)" stroke-width="1.51"/><path d="M2099,-455L2541,-464L870,-437Z" fill="rgb(95,121,121)" stroke="rgb(95,121,121)" stroke-width="1.51"/><path d="M2978,131L2989,-130L2642,32Z" fill="rgb(91,114,114)" stroke="rgb(91,114,114)" stroke-width="1.51"/><path d="M3017,-430L2989,-130L2978,131Z" fill="rgb(92,115,115)" stroke="rgb(92,115,115)" stroke-width="1.51"/><path d="M3017,-430L2978,131L3008,1330Z" fill="rgb(83,105,105)" stroke="rgb(83,105,105)" stroke-width="1.51"/><path d="M-87,-326L-276,-324L-329,-115Z" fill="rgb(131,166,166)" stroke="rgb(131,166,166)" stroke-width="1.51"/><path d="M870,-437L-276,-324L-87,-326Z" fill="rgb(126,160,160)" stroke="rgb(126,160,160)" stroke-width="1.51"/><path d="M2989,-130L3017,-430L2541,-464Z" fill="rgb(92,115,115)" stroke="rgb(92,115,115)" stroke-width="1.51"/><path d="M3031,2890L3017,-430L3008,1330Z" fill="rgb(62,78,78)" stroke="rgb(62,78,78)" stroke-width="1.51"/></svg>